<svg width="44" height="44" viewBox="0 0 44 44" fill="none" xmlns="http://www.w3.org/2000/svg">
<path d="M35.2239 18.6221C34.9816 18.2753 34.4599 17.6197 34.423 17.5754C25.5983 7.86736 23.4061 2.20553 22.9446 0.70211C22.8158 0.282327 22.4359 0 21.9985 0C21.5611 0 21.1812 0.282327 21.0524 0.701663C20.5908 2.20598 18.3987 7.86861 9.53789 17.6197C9.53789 17.6197 9.01622 18.2754 8.77393 18.6217C6.57055 21.7687 5.566 25.6301 5.94583 29.4955C6.68405 37.0122 12.6642 43.0689 20.1655 43.8973C20.7894 43.966 21.409 44 22.0243 44C26.004 44 29.761 42.5717 32.7593 39.8863C36.1743 36.8279 38.1328 32.446 38.1328 27.8648C38.1328 24.5366 37.1265 21.3407 35.2239 18.6221ZM31.5854 38.5754C28.5004 41.3386 24.5147 42.607 20.358 42.1477C13.68 41.4103 8.3546 36.0166 7.69718 29.3236C7.35863 25.8759 8.25316 22.4342 10.216 19.631C10.4299 19.3255 10.8811 18.7575 10.8794 18.7575C17.7644 11.1823 20.7472 5.91618 21.9985 3.1233C23.248 5.91449 26.2248 11.1724 33.0832 18.7154C33.0858 18.7188 33.561 19.3153 33.7818 19.631C35.4765 22.0526 36.3728 24.8997 36.3728 27.8649C36.3728 31.9463 34.6275 35.8504 31.5854 38.5754Z" fill="black"/>
<path d="M12.2001 28.8801L10.4487 29.0529C10.9712 34.3654 15.3625 38.8138 20.6621 39.3999L20.8563 37.6502C16.3645 37.154 12.6434 33.3836 12.2001 28.8801Z" fill="black"/>
</svg>
