<svg width="49" height="50" viewBox="0 0 49 50" fill="none" xmlns="http://www.w3.org/2000/svg">
<path d="M11.2989 43.9092C6.87999 43.9092 3.24414 40.3101 3.24414 35.9358V7.97342C3.24414 3.59911 6.82405 0 11.2989 0H14.0957C18.235 0 21.5352 3.15615 22.0946 7.14286C22.2624 8.25028 22.9336 8.13953 23.2693 7.91805C25.0033 6.64452 26.3457 4.98339 27.2407 3.0454C27.5204 2.38095 28.1357 1.93798 28.8629 1.88261C28.9188 1.88261 28.9747 1.88261 29.0866 1.88261C29.7019 1.88261 30.2613 2.21484 30.7088 2.71318C33.0581 5.26024 36.8617 7.6412 40.8332 7.80731C41.2807 7.80731 41.6722 7.80731 42.1197 7.75194C42.1756 7.75194 42.2316 7.75194 42.3435 7.75194C42.9588 7.75194 43.574 8.02879 43.9656 8.5825C44.4131 9.13621 44.469 9.91141 44.1893 10.5759C42.3994 14.6179 42.8469 19.3245 45.4759 22.8682C45.9234 23.4219 45.9793 24.1971 45.6996 24.8616C45.4199 25.526 44.8046 25.969 44.0775 26.0244C39.6585 26.4673 35.7989 29.2359 33.953 33.278C33.6734 33.9424 33.0581 34.3854 32.3309 34.4408C32.275 34.4408 32.1631 34.4408 32.1072 34.4408C31.4919 34.4408 30.8766 34.1639 30.485 33.6102C30.4291 33.4994 30.3731 33.4441 30.2613 33.3333C30.1494 33.2226 30.0935 33.1118 29.9816 33.0011C29.9256 32.9457 29.9256 32.8904 29.8697 32.835L29.8138 32.7796C29.0307 31.8383 28.0798 31.0631 27.017 30.3987C25.8423 29.6788 24.5558 29.2359 23.2693 28.8483C21.9827 28.4053 22.1505 29.7342 22.1505 29.7342V35.9911C22.1505 40.3654 18.5147 43.9646 14.0957 43.9646H11.2989V43.9092Z" fill="white"/>
<path d="M17.6753 12.237C22.8214 11.6833 27.2963 8.52715 29.4219 3.82062C32.4424 7.97344 37.4767 10.2437 42.6228 9.68994C40.4972 14.3965 41.0566 19.8228 44.1331 23.9757C38.9869 24.5294 34.5121 27.6855 32.3865 32.392C29.3659 28.2392 24.3317 25.969 19.1856 26.5227C21.2552 21.8162 20.6958 16.3898 17.6753 12.237Z" fill="url(#paint0_linear_106_110)"/>
<path opacity="0.5" d="M22.6538 24.1418L23.2691 24.2525C23.4928 24.3079 23.7165 24.3632 23.9403 24.4186C24.8353 24.6955 25.6743 25.0277 26.4015 25.4707C27.9118 26.3012 29.0305 27.2979 29.8695 28.2946C30.6526 29.2359 31.156 30.1218 31.4357 30.7863C31.6035 31.1185 31.9391 31.8383 31.9391 31.8383C29.9254 28.959 24.7234 25.9136 19.1298 26.5227C21.535 21.3178 20.1366 16.1683 18.3467 13.3998C18.3467 13.3998 18.6264 13.6213 19.1298 14.0642C19.6332 14.5072 20.3044 15.227 20.9757 16.2791C21.6469 17.3311 22.2622 18.7154 22.5978 20.3765C22.7097 21.2071 22.8216 22.093 22.7097 23.0343C22.7097 23.2558 22.6538 23.4773 22.6538 23.7542V24.1418C22.5978 24.1418 22.5978 24.0864 22.6538 24.1418C22.6538 24.1418 22.5978 24.1418 22.6538 24.1418Z" fill="#56BEFF"/>
<path opacity="0.3" d="M28.0234 2.32557C28.9184 8.52712 30.149 13.4551 30.7643 13.3998C31.3796 13.289 31.1559 8.25027 30.2609 1.99335L28.0234 2.32557Z" fill="url(#paint1_linear_106_110)"/>
<path opacity="0.3" d="M15.7734 13.0122C21.7586 15.0609 26.7369 16.2237 26.9607 15.67C27.1844 15.1163 22.4858 12.9568 16.5006 10.9081L15.7734 13.0122Z" fill="url(#paint2_linear_106_110)"/>
<path opacity="0.3" d="M18.9617 28.2946C23.884 24.3078 27.4639 20.7087 27.0724 20.2104C26.6808 19.7121 22.4297 22.536 17.5073 26.5227L18.9617 28.2946Z" fill="url(#paint3_linear_106_110)"/>
<path opacity="0.3" d="M33.5612 33.7209C33.0018 27.464 31.995 22.4806 31.3797 22.536C30.8203 22.5914 30.7644 27.6855 31.3238 33.9424L33.5612 33.7209Z" fill="url(#paint4_linear_106_110)"/>
<path opacity="0.3" d="M46.147 23.7541C40.4415 20.9302 35.6869 19.1583 35.4073 19.6567C35.1276 20.2104 39.4906 22.9236 45.1401 25.7475L46.147 23.7541Z" fill="url(#paint5_linear_106_110)"/>
<path opacity="0.3" d="M43.6297 7.64117C38.4276 11.2957 34.568 14.5625 34.9036 15.0609C35.2392 15.5592 39.7141 13.0675 44.9162 9.46842L43.6297 7.64117Z" fill="url(#paint6_linear_106_110)"/>
<path d="M13.7599 41.9158H12.3056C8.61381 41.9158 5.59326 38.9258 5.59326 35.2713V8.63786C5.59326 4.98338 8.61381 1.99335 12.3056 1.99335H13.7599C17.4517 1.99335 20.4723 4.98338 20.4723 8.63786V35.2713C20.4723 38.9258 17.4517 41.9158 13.7599 41.9158Z" fill="url(#paint7_linear_106_110)"/>
<path opacity="0.5" d="M18.2906 33.3333H7.83057V8.25028C7.83057 5.98007 9.67646 4.15283 11.9698 4.15283H14.1513C16.4447 4.15283 18.2906 5.98007 18.2906 8.25028V33.3333Z" fill="url(#paint8_linear_106_110)"/>
<path d="M16.8364 15.1162C17.1161 15.1162 17.3398 14.8947 17.3398 14.6179C17.3398 14.341 17.1161 14.1196 16.8364 14.1196H14.9345V11.6279H16.8364C17.1161 11.6279 17.3398 11.4064 17.3398 11.1295C17.3398 10.8527 17.1161 10.6312 16.8364 10.6312H14.9345V8.08411C14.9345 6.9767 14.0396 6.09076 12.9208 6.09076C11.8021 6.09076 10.9071 6.9767 10.9071 8.08411V10.6312H9.11719C8.83751 10.6312 8.61377 10.8527 8.61377 11.1295C8.61377 11.4064 8.83751 11.6279 9.11719 11.6279H10.9071V14.1196H9.11719C8.83751 14.1196 8.61377 14.341 8.61377 14.6179C8.61377 14.8947 8.83751 15.1162 9.11719 15.1162H10.9071V17.6079H9.11719C8.83751 17.6079 8.61377 17.8294 8.61377 18.1063C8.61377 18.3831 8.83751 18.6046 9.11719 18.6046H10.9071V21.0963H9.11719C8.83751 21.0963 8.61377 21.3178 8.61377 21.5946C8.61377 21.8715 8.83751 22.093 9.11719 22.093H10.9071V24.5847H9.11719C8.83751 24.5847 8.61377 24.8062 8.61377 25.083C8.61377 25.3599 8.83751 25.5813 9.11719 25.5813H10.9071V28.073H9.11719C8.83751 28.073 8.61377 28.2945 8.61377 28.5714C8.61377 28.8482 8.83751 29.0697 9.11719 29.0697H10.9071V31.7829C9.56468 32.5027 8.72564 33.8316 8.72564 35.382C8.72564 37.6522 10.5715 39.4795 12.809 39.4795C15.1024 39.4795 16.9482 37.6522 16.9482 35.382C16.9482 33.9424 16.1651 32.6135 14.9345 31.8936V29.0697H16.8364C17.1161 29.0697 17.3398 28.8482 17.3398 28.5714C17.3398 28.2945 17.1161 28.073 16.8364 28.073H14.9345V25.5813H16.8364C17.1161 25.5813 17.3398 25.3599 17.3398 25.083C17.3398 24.8062 17.1161 24.5847 16.8364 24.5847H14.9345V22.093H16.8364C17.1161 22.093 17.3398 21.8715 17.3398 21.5946C17.3398 21.3178 17.1161 21.0963 16.8364 21.0963H14.9345V18.6046H16.8364C17.1161 18.6046 17.3398 18.3831 17.3398 18.1063C17.3398 17.8294 17.1161 17.6079 16.8364 17.6079H14.9345V15.1162H16.8364Z" fill="url(#paint9_linear_106_110)"/>
<path d="M13.8716 8.02878C13.8716 7.47507 13.4241 7.0321 12.8648 7.0321C12.3054 7.0321 11.8579 7.47507 11.8579 8.02878V23.6988H13.8716V8.02878Z" fill="white"/>
<path d="M13.872 32.5028V23.7542H11.8583V32.4474C10.5717 32.835 9.67676 33.9978 9.67676 35.3821C9.67676 37.0986 11.0752 38.4275 12.7532 38.4275C14.4873 38.4275 15.8857 37.0432 15.8857 35.3821C15.8857 34.0532 15.0466 32.9457 13.872 32.5028Z" fill="url(#paint10_linear_106_110)"/>
<path opacity="0.6" d="M14.9903 34.7176C14.9903 35.825 14.0394 36.7663 12.9207 36.7663C11.802 36.7663 10.8511 35.825 10.8511 34.7176C10.8511 33.6102 11.802 32.6689 12.9207 32.6689C14.0394 32.6689 14.9903 33.6102 14.9903 34.7176Z" fill="url(#paint11_linear_106_110)"/>
<path opacity="0.6" d="M13.3122 24.1971H12.3613V32.0598H13.3122V24.1971Z" fill="url(#paint12_linear_106_110)"/>
<path opacity="0.5" d="M13.0329 41.9158C12.3058 41.9158 11.5786 41.9158 10.7955 41.8604C10.0683 41.7497 9.34115 41.5282 8.72586 41.1406C8.11056 40.8084 7.60713 40.3654 7.21558 39.9224C6.82403 39.4795 6.48841 39.0365 6.26467 38.5382C5.81718 37.6522 5.64937 36.8217 5.64937 36.2679C5.59344 35.9911 5.64937 35.7696 5.64937 35.6589C5.64937 35.4927 5.64937 35.4374 5.64937 35.4374C5.64937 35.4374 5.64937 35.4927 5.70531 35.6589C5.70531 35.825 5.76124 35.9911 5.81718 36.2679C5.92905 36.8217 6.1528 37.5415 6.71216 38.372C6.9359 38.7596 7.32745 39.1472 7.71901 39.5348C8.11056 39.9224 8.61398 40.2547 9.17334 40.5315C9.73271 40.8084 10.348 40.9745 11.0192 41.0852C11.6345 41.1406 12.4176 41.1406 13.1448 41.1406C13.872 41.1406 14.6551 41.196 15.2704 41.0852C15.9416 41.0298 16.5569 40.8084 17.1163 40.5315C17.6756 40.2547 18.1791 39.9224 18.5706 39.5348C18.9622 39.1472 19.2978 38.7596 19.5775 38.372C20.0809 37.5968 20.3606 36.8217 20.4724 36.2679C20.5284 35.9911 20.5284 35.7696 20.5843 35.6589C20.5843 35.4927 20.6402 35.4374 20.6402 35.4374C20.6402 35.4374 20.6402 35.4927 20.6402 35.6589C20.6402 35.825 20.6402 35.9911 20.6402 36.2679C20.5843 36.8217 20.4724 37.6522 20.0249 38.5382C19.8012 38.9811 19.4656 39.4241 19.074 39.9224C18.6825 40.3654 18.1231 40.753 17.5638 41.1406C16.9485 41.4728 16.2772 41.7497 15.4941 41.8604C14.5432 41.9158 13.816 41.9158 13.0329 41.9158Z" fill="#56BEFF"/>
<path d="M13.0328 4.1528C13.5363 4.1528 14.0397 4.1528 14.4872 4.1528C14.9906 4.1528 15.494 4.26354 15.9415 4.48502C16.8365 4.87262 17.4518 5.53707 17.7874 6.14615C18.123 6.75523 18.2349 7.30894 18.2349 7.69654C18.2349 7.86265 18.2349 8.02876 18.2349 8.13951C18.2349 8.25025 18.2349 8.30562 18.2349 8.30562C18.2349 8.30562 18.2349 8.25025 18.2349 8.13951C18.2349 8.02876 18.179 7.91802 18.123 7.75191C18.0111 7.41968 17.8433 6.92134 17.4518 6.42301C17.0602 5.92467 16.5009 5.4817 15.7178 5.20484C15.3822 4.98336 14.9347 4.92799 14.5431 4.92799C14.0397 4.92799 13.5922 4.92799 13.0888 4.92799C12.5853 4.92799 12.0819 4.92799 11.6344 4.92799C11.1869 4.92799 10.7954 4.98336 10.4038 5.0941C9.62074 5.31559 9.06138 5.81392 8.66982 6.31226C8.27827 6.8106 8.11046 7.30894 7.99859 7.64117C7.94265 7.80728 7.94265 7.97339 7.88672 8.02876C7.88672 8.13951 7.88672 8.19488 7.88672 8.19488C7.88672 8.19488 7.88672 8.13951 7.88672 8.02876C7.88672 7.91802 7.88672 7.80728 7.88672 7.5858C7.88672 7.1982 7.99859 6.64449 8.33421 6.03541C8.66982 5.42633 9.28512 4.76188 10.1801 4.37428C10.6276 4.20817 11.131 4.09742 11.6344 4.04205C12.026 4.1528 12.5294 4.1528 13.0328 4.1528Z" fill="white"/>
<defs>
<linearGradient id="paint0_linear_106_110" x1="36.0249" y1="6.76355" x2="25.9518" y2="29.5234" gradientUnits="userSpaceOnUse">
<stop stop-color="#C2E8FF"/>
<stop offset="1" stop-color="#38B3FF"/>
</linearGradient>
<linearGradient id="paint1_linear_106_110" x1="26.8454" y1="3.28301" x2="33.3061" y2="11.3983" gradientUnits="userSpaceOnUse">
<stop offset="0.1337" stop-color="#004A87"/>
<stop offset="0.2061" stop-color="#12578F"/>
<stop offset="0.351" stop-color="#4077A5"/>
<stop offset="0.555" stop-color="#8AACC8"/>
<stop offset="0.8082" stop-color="#F0F4F8"/>
<stop offset="0.8449" stop-color="white"/>
</linearGradient>
<linearGradient id="paint2_linear_106_110" x1="16.0516" y1="14.4834" x2="26.2663" y2="12.3606" gradientUnits="userSpaceOnUse">
<stop offset="0.1337" stop-color="#004A87"/>
<stop offset="0.2061" stop-color="#12578F"/>
<stop offset="0.351" stop-color="#4077A5"/>
<stop offset="0.555" stop-color="#8AACC8"/>
<stop offset="0.8082" stop-color="#F0F4F8"/>
<stop offset="0.8449" stop-color="white"/>
</linearGradient>
<linearGradient id="paint3_linear_106_110" x1="20.361" y1="28.8085" x2="23.8433" y2="19.0682" gradientUnits="userSpaceOnUse">
<stop offset="0.1337" stop-color="#004A87"/>
<stop offset="0.2061" stop-color="#12578F"/>
<stop offset="0.351" stop-color="#4077A5"/>
<stop offset="0.555" stop-color="#8AACC8"/>
<stop offset="0.8082" stop-color="#F0F4F8"/>
<stop offset="0.8449" stop-color="white"/>
</linearGradient>
<linearGradient id="paint4_linear_106_110" x1="34.8042" y1="32.848" x2="28.7639" y2="24.4223" gradientUnits="userSpaceOnUse">
<stop offset="0.1337" stop-color="#004A87"/>
<stop offset="0.2061" stop-color="#12578F"/>
<stop offset="0.351" stop-color="#4077A5"/>
<stop offset="0.555" stop-color="#8AACC8"/>
<stop offset="0.8082" stop-color="#F0F4F8"/>
<stop offset="0.8449" stop-color="white"/>
</linearGradient>
<linearGradient id="paint5_linear_106_110" x1="46.06" y1="22.2369" x2="35.6519" y2="23.0045" gradientUnits="userSpaceOnUse">
<stop offset="0.1337" stop-color="#004A87"/>
<stop offset="0.2061" stop-color="#12578F"/>
<stop offset="0.351" stop-color="#4077A5"/>
<stop offset="0.555" stop-color="#8AACC8"/>
<stop offset="0.8082" stop-color="#F0F4F8"/>
<stop offset="0.8449" stop-color="white"/>
</linearGradient>
<linearGradient id="paint6_linear_106_110" x1="42.2577" y1="7.03474" x2="38.0691" y2="16.4981" gradientUnits="userSpaceOnUse">
<stop offset="0.1337" stop-color="#004A87"/>
<stop offset="0.2061" stop-color="#12578F"/>
<stop offset="0.351" stop-color="#4077A5"/>
<stop offset="0.555" stop-color="#8AACC8"/>
<stop offset="0.8082" stop-color="#F0F4F8"/>
<stop offset="0.8449" stop-color="white"/>
</linearGradient>
<linearGradient id="paint7_linear_106_110" x1="3.68036" y1="5.91035" x2="22.1189" y2="38.1728" gradientUnits="userSpaceOnUse">
<stop stop-color="#C2E8FF"/>
<stop offset="1" stop-color="#38B3FF"/>
</linearGradient>
<linearGradient id="paint8_linear_106_110" x1="13.0415" y1="4.17825" x2="13.0415" y2="33.3313" gradientUnits="userSpaceOnUse">
<stop offset="0.0534759" stop-color="white"/>
<stop offset="0.2359" stop-color="#C0C0C0"/>
<stop offset="0.5477" stop-color="#5A5A5A"/>
<stop offset="0.7645" stop-color="#191919"/>
<stop offset="0.8663"/>
</linearGradient>
<linearGradient id="paint9_linear_106_110" x1="5.10384" y1="10.1796" x2="19.8707" y2="36.0177" gradientUnits="userSpaceOnUse">
<stop stop-color="#7ACDFF"/>
<stop offset="0.1573" stop-color="#74C8FC"/>
<stop offset="0.3736" stop-color="#62BAF2"/>
<stop offset="0.6239" stop-color="#45A2E3"/>
<stop offset="0.898" stop-color="#1D82CD"/>
<stop offset="1" stop-color="#0C74C4"/>
</linearGradient>
<linearGradient id="paint10_linear_106_110" x1="16.387" y1="27.636" x2="9.48104" y2="34.7833" gradientUnits="userSpaceOnUse">
<stop stop-color="#A6DDFF"/>
<stop offset="0.0750227" stop-color="#B1E1FF"/>
<stop offset="0.2044" stop-color="#BEE6FF"/>
<stop offset="0.3262" stop-color="#C2E8FF"/>
<stop offset="0.4359" stop-color="#B2E2FF"/>
<stop offset="0.6504" stop-color="#88D2FF"/>
<stop offset="0.9464" stop-color="#45B8FF"/>
<stop offset="1" stop-color="#38B3FF"/>
</linearGradient>
<linearGradient id="paint11_linear_106_110" x1="12.9049" y1="32.6667" x2="12.9049" y2="36.7574" gradientUnits="userSpaceOnUse">
<stop offset="0.0534759" stop-color="#FFFF5F"/>
<stop offset="0.2359" stop-color="#C0C048"/>
<stop offset="0.5477" stop-color="#5A5A21"/>
<stop offset="0.7645" stop-color="#191909"/>
<stop offset="0.8663"/>
</linearGradient>
<linearGradient id="paint12_linear_106_110" x1="12.8421" y1="24.1746" x2="12.8421" y2="32.0438" gradientUnits="userSpaceOnUse">
<stop offset="0.0534759" stop-color="white"/>
<stop offset="0.2359" stop-color="#C0C0C0"/>
<stop offset="0.5477" stop-color="#5A5A5A"/>
<stop offset="0.7645" stop-color="#191919"/>
<stop offset="0.8663"/>
</linearGradient>
</defs>
</svg>
