<svg width="24" height="24" viewBox="0 0 24 24" fill="none" xmlns="http://www.w3.org/2000/svg">
<path d="M8.7619 6.85795C8.7619 7.87061 9.22449 8.86077 9.63265 9.7384C9.98639 10.5035 10.2857 11.1336 10.2857 11.7412C10.2857 13.1814 8.87075 14.3516 7.12925 14.3516C5.41497 14.3516 4 13.1814 4 11.7412C4 10.4585 5.85034 7.39804 7.83673 6.43039L8.7619 5.98031V6.85795Z" fill="url(#paint0_radial_54_8743)"/>
<path d="M8.38097 6.85795C8.38097 7.93812 8.87076 8.95077 9.27893 9.85091C9.60546 10.571 9.90478 11.2011 9.90478 11.7412C9.90478 13.0014 8.65308 14.0366 7.12927 14.0366C5.60546 14.0366 4.38097 13.0014 4.38097 11.7412C4.38097 10.5485 6.17689 7.60056 8.02723 6.70042L8.38097 6.52039V6.85795Z" fill="url(#paint1_radial_54_8743)"/>
<path d="M9.17008 11.1336C9.17008 10.7061 9.03403 10.211 8.84355 9.64839C9.19729 10.391 9.52382 11.0661 9.52382 11.6062C9.52382 12.7764 8.38097 13.699 6.99321 13.699C6.93879 13.699 6.85716 13.699 6.80274 13.699C8.10886 13.609 9.17008 12.5063 9.17008 11.1336Z" fill="#D1DCEE"/>
<path d="M6.72115 8.79326C6.69394 8.74825 6.72115 8.63573 6.77557 8.56822C6.82999 8.47821 6.91163 8.4557 6.96605 8.50071C6.99326 8.54572 6.99326 8.65824 6.91163 8.72575C6.8572 8.79326 6.77557 8.83826 6.72115 8.79326Z" fill="#F1E6DD"/>
<path d="M5.90478 9.94094C5.85035 9.87342 5.90478 9.6934 6.01362 9.55838C6.12246 9.42335 6.25852 9.37835 6.34015 9.44586C6.39457 9.51337 6.36736 9.6934 6.23131 9.82842C6.12246 9.98594 5.98641 10.0309 5.90478 9.94094Z" fill="#F1E6DD"/>
<path d="M13.034 4.31505V4.51758C13.034 5.12518 13.3061 5.73277 13.551 6.25035C13.7687 6.70042 13.9592 7.10549 13.9592 7.46554C13.9592 8.32068 13.1156 9.04079 12.0544 9.04079C11.0204 9.04079 10.1497 8.34318 10.1497 7.46554C10.1497 6.67792 11.2653 4.85513 12.4626 4.27004L13.0068 4V4.31505H13.034Z" fill="url(#paint2_radial_54_8743)"/>
<path d="M12.8163 4.54008C12.8163 5.19269 13.1156 5.80028 13.3605 6.34037C13.551 6.76793 13.7415 7.15049 13.7415 7.48804C13.7415 8.25316 12.9796 8.86076 12.0816 8.86076C11.1565 8.86076 10.4218 8.23066 10.4218 7.48804C10.4218 6.76793 11.5102 4.99015 12.6259 4.45007L12.8435 4.33755V4.54008H12.8163Z" fill="url(#paint3_radial_54_8743)"/>
<path d="M13.2789 7.10549C13.2789 6.83545 13.1972 6.5429 13.0612 6.20535C13.2789 6.65542 13.4693 7.06048 13.4693 7.37553C13.4693 8.07314 12.7891 8.63573 11.9455 8.63573C11.9183 8.63573 11.8639 8.63573 11.8367 8.63573C12.653 8.59072 13.2789 7.91562 13.2789 7.10549Z" fill="#D1DCEE"/>
<path d="M11.8095 5.68777C11.7823 5.66526 11.8095 5.59775 11.8367 5.55274C11.8639 5.50774 11.9183 5.48523 11.9455 5.50774C11.9728 5.53024 11.9455 5.59775 11.9183 5.64276C11.8911 5.68777 11.8367 5.71027 11.8095 5.68777Z" fill="#F1E6DD"/>
<path d="M11.3197 6.38537C11.2925 6.34037 11.3197 6.25035 11.3741 6.16034C11.4558 6.07032 11.5374 6.04782 11.5646 6.09283C11.5918 6.13783 11.5646 6.25035 11.5102 6.31786C11.4558 6.40788 11.3469 6.43038 11.3197 6.38537Z" fill="#F1E6DD"/>
<path d="M13.5238 9.78341C13.5238 10.2335 13.7415 10.6835 13.9047 11.0886C14.068 11.4262 14.2041 11.7187 14.2041 11.9888C14.2041 12.6414 13.5782 13.1589 12.7891 13.1589C12 13.1589 11.3741 12.6414 11.3741 11.9888C11.3741 11.4037 12.2177 10.0309 13.1156 9.60338L13.5238 9.40085V9.78341Z" fill="url(#paint4_radial_54_8743)"/>
<path d="M13.3605 9.78341C13.3605 10.256 13.5782 10.7286 13.7687 11.1336C13.932 11.4487 14.0408 11.7412 14.0408 11.9888C14.0408 12.5513 13.4694 13.0239 12.7891 13.0239C12.1088 13.0239 11.5374 12.5513 11.5374 11.9888C11.5374 11.4487 12.3537 10.121 13.1973 9.7159L13.3605 9.64839V9.78341Z" fill="url(#paint5_radial_54_8743)"/>
<path d="M13.7143 11.7187C13.7143 11.5162 13.6599 11.2911 13.551 11.0436C13.7143 11.3812 13.8503 11.6737 13.8503 11.9212C13.8503 12.4388 13.3333 12.8664 12.7075 12.8664C12.6803 12.8664 12.6531 12.8664 12.6258 12.8664C13.2245 12.8214 13.7143 12.3263 13.7143 11.7187Z" fill="#D1DCEE"/>
<path d="M12.6259 10.661C12.5986 10.6385 12.6259 10.5935 12.6531 10.5485C12.6803 10.5035 12.7075 10.5035 12.7347 10.526C12.7619 10.5485 12.7347 10.5935 12.7075 10.6385C12.6803 10.661 12.6259 10.661 12.6259 10.661Z" fill="#F1E6DD"/>
<path d="M12.2449 11.1786C12.2177 11.1561 12.2449 11.0661 12.2993 10.9986C12.3538 10.9311 12.4082 10.9086 12.4354 10.9536C12.4626 10.9761 12.4354 11.0661 12.381 11.1336C12.3266 11.1786 12.2721 11.2011 12.2449 11.1786Z" fill="#F1E6DD"/>
<path d="M17.1157 13.3615C17.1157 13.8115 17.3334 14.2616 17.4966 14.6667C17.6599 15.0042 17.796 15.2968 17.796 15.5668C17.796 16.2194 17.1701 16.737 16.381 16.737C15.5919 16.737 14.966 16.2194 14.966 15.5668C14.966 14.9817 15.8096 13.609 16.7075 13.1814L17.1157 12.9789V13.3615Z" fill="url(#paint6_radial_54_8743)"/>
<path d="M16.9524 13.3615C16.9524 13.834 17.1701 14.3066 17.3606 14.7117C17.5239 15.0267 17.6327 15.3193 17.6327 15.5668C17.6327 16.1294 17.0613 16.602 16.381 16.602C15.7007 16.602 15.1293 16.1294 15.1293 15.5668C15.1293 15.0267 15.9456 13.699 16.7892 13.294L16.9524 13.2264V13.3615Z" fill="url(#paint7_radial_54_8743)"/>
<path d="M17.3062 15.2968C17.3062 15.0942 17.2517 14.8692 17.1429 14.6217C17.3062 14.9592 17.4422 15.2518 17.4422 15.4993C17.4422 16.0169 16.9252 16.4444 16.2994 16.4444C16.2722 16.4444 16.2449 16.4444 16.2177 16.4444C16.8164 16.3994 17.3062 15.9044 17.3062 15.2968Z" fill="#D1DCEE"/>
<path d="M16.1905 14.2391C16.1633 14.2166 16.1905 14.1716 16.2177 14.1266C16.245 14.0816 16.2722 14.0816 16.2994 14.1041C16.3266 14.1266 16.2994 14.1716 16.2722 14.2166C16.245 14.2391 16.2177 14.2616 16.1905 14.2391Z" fill="#F1E6DD"/>
<path d="M15.8368 14.7567C15.8096 14.7342 15.8368 14.6442 15.8912 14.5767C15.9457 14.5091 16.0001 14.4866 16.0273 14.5316C16.0545 14.5541 16.0273 14.6442 15.9729 14.7117C15.9184 14.7792 15.864 14.7792 15.8368 14.7567Z" fill="#F1E6DD"/>
<path d="M12.136 14.2841V14.5316C12.136 15.2743 12.4626 15.9944 12.7619 16.647C13.0068 17.1871 13.2517 17.6821 13.2517 18.1097C13.2517 19.1674 12.2177 20 10.966 20C9.68706 20 8.68025 19.1449 8.68025 18.1097C8.68025 17.1646 10.0408 14.9367 11.483 14.2166L12.1632 13.879V14.2841H12.136Z" fill="url(#paint8_radial_54_8743)"/>
<path d="M11.8639 14.5316C11.8639 15.3193 12.2177 16.0619 12.517 16.7145C12.7619 17.2321 12.9796 17.7046 12.9796 18.0872C12.9796 19.0098 12.0816 19.7525 10.966 19.7525C9.85033 19.7525 8.95237 19.0098 8.95237 18.0872C8.95237 17.2096 10.2857 15.0492 11.619 14.3966L11.8911 14.2616V14.5316H11.8639Z" fill="url(#paint9_radial_54_8743)"/>
<path d="M12.4354 17.6596C12.4354 17.3446 12.3265 16.9845 12.1905 16.5795C12.4354 17.1195 12.6803 17.6146 12.6803 17.9972C12.6803 18.8523 11.864 19.5274 10.8299 19.5274C10.7755 19.5274 10.7483 19.5274 10.6939 19.5274C11.6463 19.4599 12.4354 18.6498 12.4354 17.6596Z" fill="#D1DCEE"/>
<path d="M10.6394 15.9269C10.6122 15.9044 10.6394 15.8143 10.6666 15.7693C10.7211 15.7018 10.7755 15.6793 10.8027 15.7243C10.8299 15.7468 10.8027 15.8368 10.7755 15.8819C10.7483 15.9494 10.6666 15.9719 10.6394 15.9269Z" fill="#F1E6DD"/>
<path d="M10.0408 16.782C9.98638 16.737 10.0408 16.602 10.1224 16.512C10.2041 16.4219 10.3129 16.3769 10.3401 16.4219C10.3945 16.4669 10.3673 16.602 10.2585 16.692C10.2041 16.8045 10.0952 16.827 10.0408 16.782Z" fill="#F1E6DD"/>
<path d="M18.8844 5.75528V6.00282C18.8844 6.74543 19.2109 7.46554 19.5102 8.11815C19.7551 8.65823 20 9.15331 20 9.58088C20 10.6385 18.966 11.4712 17.7143 11.4712C16.4354 11.4712 15.4286 10.616 15.4286 9.58088C15.4286 8.63573 16.7891 6.40788 18.2313 5.68777L18.9116 5.35021V5.75528H18.8844Z" fill="url(#paint10_radial_54_8743)"/>
<path d="M18.6123 6.00281C18.6123 6.79044 18.966 7.53305 19.2653 8.18566C19.5102 8.70324 19.7279 9.17581 19.7279 9.55837C19.7279 10.481 18.8299 11.2461 17.6871 11.2461C16.5714 11.2461 15.6735 10.5035 15.6735 9.55837C15.6735 8.68073 17.0068 6.5204 18.3401 5.86779L18.6123 5.73277V6.00281Z" fill="url(#paint11_radial_54_8743)"/>
<path d="M19.1837 9.1308C19.1837 8.81575 19.0749 8.4557 18.9388 8.05063C19.1837 8.59072 19.4286 9.08579 19.4286 9.46836C19.4286 10.3235 18.6123 10.9986 17.5783 10.9986C17.5238 10.9986 17.4966 10.9986 17.4422 10.9986C18.3946 10.9536 19.1837 10.1435 19.1837 9.1308Z" fill="#D1DCEE"/>
<path d="M17.3877 7.42054C17.3605 7.39804 17.3877 7.30803 17.415 7.26302C17.4694 7.19551 17.5238 7.17301 17.551 7.21801C17.5782 7.24052 17.551 7.33053 17.5238 7.37554C17.4694 7.42054 17.415 7.44305 17.3877 7.42054Z" fill="#F1E6DD"/>
<path d="M16.7891 8.27567C16.7347 8.23067 16.7891 8.09565 16.8708 8.00563C16.9524 7.91562 17.0612 7.87061 17.0884 7.91562C17.1429 7.96063 17.1156 8.09565 17.0068 8.18566C16.9524 8.27567 16.8435 8.32068 16.7891 8.27567Z" fill="#F1E6DD"/>
<defs>
<radialGradient id="paint0_radial_54_8743" cx="0" cy="0" r="1" gradientUnits="userSpaceOnUse" gradientTransform="translate(4.67892 8.81616) scale(26.0703 16.1888)">
<stop offset="0.005618" stop-color="#D3DFF2"/>
<stop offset="0.5393" stop-color="#1998D5"/>
<stop offset="1" stop-color="#0073BB"/>
</radialGradient>
<radialGradient id="paint1_radial_54_8743" cx="0" cy="0" r="1" gradientUnits="userSpaceOnUse" gradientTransform="translate(11.5593 12.2972) rotate(180) scale(10.916 6.63458)">
<stop offset="0.005618" stop-color="#A9D1EF"/>
<stop offset="0.5393" stop-color="#1998D5"/>
<stop offset="1" stop-color="#0073BB"/>
</radialGradient>
<radialGradient id="paint2_radial_54_8743" cx="0" cy="0" r="1" gradientUnits="userSpaceOnUse" gradientTransform="translate(4.2122 8.4845) scale(25.8888 16.1805)">
<stop offset="0.005618" stop-color="#D3DFF2"/>
<stop offset="0.5393" stop-color="#1998D5"/>
<stop offset="1" stop-color="#0073BB"/>
</radialGradient>
<radialGradient id="paint3_radial_54_8743" cx="0" cy="0" r="1" gradientUnits="userSpaceOnUse" gradientTransform="translate(12.6805 11.4476) rotate(180) scale(10.9239 6.6304)">
<stop offset="0.005618" stop-color="#A9D1EF"/>
<stop offset="0.5393" stop-color="#1998D5"/>
<stop offset="1" stop-color="#0073BB"/>
</radialGradient>
<radialGradient id="paint4_radial_54_8743" cx="0" cy="0" r="1" gradientUnits="userSpaceOnUse" gradientTransform="translate(4.77042 8.79641) scale(26.0292 16.2098)">
<stop offset="0.005618" stop-color="#D3DFF2"/>
<stop offset="0.5393" stop-color="#1998D5"/>
<stop offset="1" stop-color="#0073BB"/>
</radialGradient>
<radialGradient id="paint5_radial_54_8743" cx="0" cy="0" r="1" gradientUnits="userSpaceOnUse" gradientTransform="translate(12.2938 11.7674) rotate(180) scale(10.8223 6.6377)">
<stop offset="0.005618" stop-color="#A9D1EF"/>
<stop offset="0.5393" stop-color="#1998D5"/>
<stop offset="1" stop-color="#0073BB"/>
</radialGradient>
<radialGradient id="paint6_radial_54_8743" cx="0" cy="0" r="1" gradientUnits="userSpaceOnUse" gradientTransform="translate(4.75511 8.81939) scale(26.0302 16.2104)">
<stop offset="0.005618" stop-color="#D3DFF2"/>
<stop offset="0.5393" stop-color="#1998D5"/>
<stop offset="1" stop-color="#0073BB"/>
</radialGradient>
<radialGradient id="paint7_radial_54_8743" cx="0" cy="0" r="1" gradientUnits="userSpaceOnUse" gradientTransform="translate(12.2759 11.7921) rotate(180) scale(10.8221 6.63756)">
<stop offset="0.005618" stop-color="#A9D1EF"/>
<stop offset="0.5393" stop-color="#1998D5"/>
<stop offset="1" stop-color="#0073BB"/>
</radialGradient>
<radialGradient id="paint8_radial_54_8743" cx="0" cy="0" r="1" gradientUnits="userSpaceOnUse" gradientTransform="translate(4.23411 8.6277) scale(26.1833 16.172)">
<stop offset="0.005618" stop-color="#D3DFF2"/>
<stop offset="0.5393" stop-color="#1998D5"/>
<stop offset="1" stop-color="#0073BB"/>
</radialGradient>
<radialGradient id="paint9_radial_54_8743" cx="0" cy="0" r="1" gradientUnits="userSpaceOnUse" gradientTransform="translate(12.0177 11.9904) rotate(180) scale(10.9333 6.63167)">
<stop offset="0.005618" stop-color="#A9D1EF"/>
<stop offset="0.5393" stop-color="#1998D5"/>
<stop offset="1" stop-color="#0073BB"/>
</radialGradient>
<radialGradient id="paint10_radial_54_8743" cx="0" cy="0" r="1" gradientUnits="userSpaceOnUse" gradientTransform="translate(4.21342 8.6588) scale(26.1835 16.1721)">
<stop offset="0.005618" stop-color="#D3DFF2"/>
<stop offset="0.5393" stop-color="#1998D5"/>
<stop offset="1" stop-color="#0073BB"/>
</radialGradient>
<radialGradient id="paint11_radial_54_8743" cx="0" cy="0" r="1" gradientUnits="userSpaceOnUse" gradientTransform="translate(12.0472 11.9933) rotate(180) scale(10.8599 6.60461)">
<stop offset="0.005618" stop-color="#A9D1EF"/>
<stop offset="0.5393" stop-color="#1998D5"/>
<stop offset="1" stop-color="#0073BB"/>
</radialGradient>
</defs>
</svg>
