<svg width="24" height="24" viewBox="0 0 24 24" fill="none" xmlns="http://www.w3.org/2000/svg">
<g clip-path="url(#clip0_63_2681)">
<path d="M23.0875 18.446C20.9504 21.7796 17.216 23.9907 12.9645 23.9999C6.3779 24.0142 0.969702 18.6864 0.890061 12.1004C0.815155 5.90334 5.41926 0.765982 11.3913 0.00126381C11.519 -0.0150956 11.6021 0.13092 11.5245 0.233576C10.0846 2.13956 9.2309 4.51261 9.2309 7.08562C9.2309 13.3698 14.3251 18.464 20.6092 18.464C21.4063 18.464 22.1839 18.3822 22.9346 18.2261C23.0606 18.1999 23.157 18.3376 23.0875 18.446Z" fill="url(#paint0_linear_63_2681)"/>
<path d="M22.9347 18.2259C23.0605 18.1997 23.1568 18.3371 23.0875 18.4454C20.946 21.7862 17.2004 24 12.9378 24C6.28316 24 0.88916 18.6055 0.88916 11.9514C0.88916 9.28851 1.75279 6.82767 3.2158 4.83295C2.88364 5.92256 2.702 7.0777 2.69474 8.27447C2.6541 14.9791 8.03891 20.398 14.7437 20.3977C17.1733 20.3976 19.4347 19.6786 21.3266 18.4411C21.8743 18.4074 22.4111 18.3348 22.9347 18.2259Z" fill="#204EC7"/>
</g>
<defs>
<linearGradient id="paint0_linear_63_2681" x1="12" y1="0" x2="12" y2="23.9999" gradientUnits="userSpaceOnUse">
<stop stop-color="#204EC7"/>
<stop offset="1" stop-color="#C4D0F1"/>
</linearGradient>
<clipPath id="clip0_63_2681">
<rect width="24" height="24" fill="white"/>
</clipPath>
</defs>
</svg>
