<svg width="24" height="24" viewBox="0 0 24 24" fill="none" xmlns="http://www.w3.org/2000/svg">
<path d="M7.7474 15.4915V15.6858C7.7474 16.2688 8.02439 16.8389 8.26879 17.3441C8.4806 17.7846 8.65983 18.1474 8.65983 18.4972C8.65983 19.3263 7.81258 20 6.76981 20C5.72704 20 4.87978 19.3263 4.87978 18.4972C4.87978 17.7587 5.98773 15.9968 7.17714 15.4397L7.73111 15.1806V15.4915H7.7474Z" fill="url(#paint0_radial_54_6924)"/>
<path d="M7.51936 15.6858C7.51936 16.3077 7.81264 16.8907 8.05704 17.4089C8.25256 17.8235 8.43178 18.1862 8.43178 18.4972C8.43178 19.2227 7.68229 19.8186 6.76987 19.8186C5.85745 19.8186 5.10795 19.2227 5.10795 18.4972C5.10795 17.8105 6.1996 16.1133 7.30755 15.5822L7.51936 15.4785V15.6858Z" fill="url(#paint1_radial_54_6924)"/>
<path d="M7.99182 18.1474C7.99182 17.9012 7.91035 17.6162 7.7963 17.2923C8.00811 17.7198 8.20363 18.1085 8.20363 18.4194C8.20363 19.0802 7.51931 19.6243 6.68836 19.6243C6.65577 19.6243 6.60689 19.6243 6.5743 19.6243C7.35638 19.5725 7.99182 18.9376 7.99182 18.1474Z" fill="#D1DCEE"/>
<path d="M6.54182 16.8C6.52552 16.7741 6.52552 16.7093 6.5744 16.6704C6.60699 16.6186 6.65587 16.6057 6.68846 16.6316C6.70475 16.6575 6.70475 16.7223 6.65587 16.7611C6.60699 16.8 6.55811 16.8259 6.54182 16.8Z" fill="#F1E6DD"/>
<path d="M6.03667 17.4608C6.00408 17.4219 6.03667 17.3182 6.10184 17.2405C6.16701 17.1628 6.24848 17.1369 6.29736 17.1757C6.32995 17.2146 6.31365 17.3182 6.23219 17.396C6.16701 17.4737 6.08555 17.4996 6.03667 17.4608Z" fill="#F1E6DD"/>
<path d="M14.493 11.5271V11.6437C14.493 11.9935 14.6559 12.3433 14.8026 12.6413C14.9329 12.9004 15.047 13.1336 15.047 13.3409C15.047 13.8332 14.5419 14.2478 13.9064 14.2478C13.2873 14.2478 12.7659 13.8462 12.7659 13.3409C12.7659 12.8875 13.4339 11.8381 14.1508 11.5012L14.4767 11.3458V11.5271H14.493Z" fill="url(#paint2_radial_54_6924)"/>
<path d="M14.3463 11.6437C14.3463 12.0194 14.5255 12.3692 14.6722 12.6802C14.7862 12.9263 14.9003 13.1466 14.9003 13.3409C14.9003 13.7814 14.4441 14.1312 13.9064 14.1312C13.3524 14.1312 12.9125 13.7684 12.9125 13.3409C12.9125 12.9263 13.5642 11.9028 14.2322 11.5919L14.3626 11.5271V11.6437H14.3463Z" fill="url(#paint3_radial_54_6924)"/>
<path d="M14.6396 13.1207C14.6396 12.9652 14.5908 12.7968 14.5093 12.6025C14.6396 12.8616 14.7537 13.0948 14.7537 13.2761C14.7537 13.6778 14.3464 14.0016 13.8413 14.0016C13.825 14.0016 13.7924 14.0016 13.7761 14.0016C14.2486 13.9887 14.6396 13.6 14.6396 13.1207Z" fill="#D1DCEE"/>
<path d="M13.7597 12.3045C13.7434 12.2915 13.7597 12.2526 13.776 12.2267C13.7923 12.2008 13.8249 12.1879 13.8412 12.2008C13.8575 12.2138 13.8412 12.2526 13.8249 12.2785C13.7923 12.3174 13.7597 12.3304 13.7597 12.3045Z" fill="#F1E6DD"/>
<path d="M13.4665 12.7061C13.4502 12.6802 13.4665 12.6284 13.499 12.5765C13.5479 12.5247 13.5968 12.5118 13.6131 12.5377C13.6294 12.5636 13.6131 12.6284 13.5805 12.6672C13.5316 12.719 13.4828 12.732 13.4665 12.7061Z" fill="#F1E6DD"/>
<path d="M14.7697 14.6753C14.7697 14.9344 14.9 15.1936 14.9978 15.4268C15.0956 15.6211 15.177 15.7895 15.177 15.945C15.177 16.3207 14.8023 16.6187 14.3298 16.6187C13.8573 16.6187 13.4825 16.3207 13.4825 15.945C13.4825 15.6081 13.9876 14.8178 14.5253 14.5717L14.7697 14.4551V14.6753Z" fill="url(#paint4_radial_54_6924)"/>
<path d="M14.6719 14.6624C14.6719 14.9344 14.8022 15.2065 14.9163 15.4397C15.014 15.6211 15.0792 15.7895 15.0792 15.932C15.0792 16.2559 14.7371 16.528 14.3297 16.528C13.9224 16.528 13.5802 16.2559 13.5802 15.932C13.5802 15.6211 14.069 14.8567 14.5741 14.6235L14.6719 14.5846V14.6624Z" fill="url(#paint5_radial_54_6924)"/>
<path d="M14.8838 15.7766C14.8838 15.66 14.8512 15.5304 14.786 15.3879C14.8838 15.5822 14.9652 15.7507 14.9652 15.8932C14.9652 16.1911 14.6557 16.4373 14.2809 16.4373C14.2646 16.4373 14.2483 16.4373 14.232 16.4373C14.6068 16.4114 14.8838 16.1264 14.8838 15.7766Z" fill="#D1DCEE"/>
<path d="M14.2319 15.1676C14.2156 15.1547 14.2319 15.1288 14.2482 15.1029C14.2645 15.0769 14.2808 15.0769 14.297 15.0899C14.3133 15.1029 14.297 15.1288 14.2808 15.1547C14.2645 15.1676 14.2319 15.1806 14.2319 15.1676Z" fill="#F1E6DD"/>
<path d="M14.0038 15.4656C13.9875 15.4526 14.0038 15.4008 14.0364 15.362C14.069 15.3231 14.1016 15.3101 14.1179 15.336C14.1342 15.349 14.1179 15.4008 14.0853 15.4397C14.069 15.4786 14.0201 15.4915 14.0038 15.4656Z" fill="#F1E6DD"/>
<path d="M12.0164 14.8178C12.0164 15.0769 12.1467 15.336 12.2445 15.5692C12.3423 15.7636 12.4237 15.932 12.4237 16.0874C12.4237 16.4632 12.049 16.7611 11.5765 16.7611C11.104 16.7611 10.7292 16.4632 10.7292 16.0874C10.7292 15.7506 11.2343 14.9603 11.772 14.7142L12.0164 14.5976V14.8178Z" fill="url(#paint6_radial_54_6924)"/>
<path d="M11.9186 14.8178C11.9186 15.0899 12.0489 15.3619 12.163 15.5951C12.2607 15.7765 12.3259 15.9449 12.3259 16.0874C12.3259 16.4113 11.9838 16.6834 11.5764 16.6834C11.1691 16.6834 10.8269 16.4113 10.8269 16.0874C10.8269 15.7765 11.3157 15.0121 11.8208 14.7789L11.9186 14.7401V14.8178Z" fill="url(#paint7_radial_54_6924)"/>
<path d="M12.1305 15.932C12.1305 15.8154 12.0979 15.6858 12.0327 15.5433C12.1305 15.7376 12.2119 15.906 12.2119 16.0486C12.2119 16.3465 11.9024 16.5927 11.5276 16.5927C11.5113 16.5927 11.495 16.5927 11.4787 16.5927C11.8535 16.5668 12.1305 16.2818 12.1305 15.932Z" fill="#D1DCEE"/>
<path d="M11.4786 15.3231C11.4623 15.3101 11.4786 15.2842 11.4949 15.2583C11.5112 15.2324 11.5275 15.2324 11.5437 15.2453C11.56 15.2583 11.5437 15.2842 11.5275 15.3101C11.5112 15.3231 11.4786 15.336 11.4786 15.3231Z" fill="#F1E6DD"/>
<path d="M11.2505 15.6211C11.2342 15.6081 11.2505 15.5563 11.2831 15.5174C11.3157 15.4786 11.3483 15.4656 11.3646 15.4915C11.3809 15.5045 11.3646 15.5563 11.332 15.5952C11.3157 15.634 11.2668 15.634 11.2505 15.6211Z" fill="#F1E6DD"/>
<path d="M6.57429 11.5401C6.57429 11.9676 6.76981 12.3822 6.94904 12.7579C7.09568 13.0688 7.24232 13.3539 7.24232 13.6C7.24232 14.2089 6.62317 14.6883 5.87368 14.6883C5.1079 14.6883 4.48875 14.196 4.48875 13.5871C4.48875 13.0429 5.30342 11.7603 6.16696 11.3458L6.57429 11.1514V11.5401Z" fill="url(#paint8_radial_54_6924)"/>
<path d="M6.41137 11.5401C6.41137 11.9935 6.62318 12.4211 6.80241 12.7968C6.94905 13.0947 7.07939 13.3668 7.07939 13.587C7.07939 14.1182 6.54172 14.5458 5.8574 14.5458C5.18937 14.5587 4.6517 14.1312 4.6517 13.587C4.6517 13.0818 5.45007 11.8381 6.24844 11.4623L6.41137 11.3846V11.5401Z" fill="url(#paint9_radial_54_6924)"/>
<path d="M6.75349 13.3409C6.75349 13.1595 6.68831 12.9523 6.60685 12.7191C6.75349 13.03 6.90013 13.315 6.90013 13.5352C6.90013 14.0276 6.41133 14.4162 5.79218 14.4162C5.7596 14.4162 5.7433 14.4162 5.71072 14.4162C6.29728 14.3774 6.75349 13.911 6.75349 13.3409Z" fill="#D1DCEE"/>
<path d="M5.67801 12.3433C5.66171 12.3304 5.67801 12.2785 5.6943 12.2526C5.71059 12.2267 5.75947 12.2008 5.77577 12.2267C5.79206 12.2397 5.77577 12.2915 5.75947 12.3174C5.74318 12.3563 5.6943 12.3692 5.67801 12.3433Z" fill="#F1E6DD"/>
<path d="M5.31957 12.8356C5.30328 12.8097 5.31957 12.732 5.36845 12.6802C5.41733 12.6283 5.4825 12.6024 5.49879 12.6283C5.53138 12.6543 5.51509 12.732 5.44991 12.7838C5.41733 12.8486 5.35216 12.8745 5.31957 12.8356Z" fill="#F1E6DD"/>
<path d="M17.9795 12.3563V12.4988C17.9795 12.9263 18.175 13.3409 18.3542 13.7166C18.5009 14.0276 18.6475 14.3126 18.6475 14.5587C18.6475 15.1676 18.0284 15.647 17.2789 15.647C16.5131 15.647 15.9103 15.1547 15.9103 14.5587C15.9103 14.0146 16.7249 12.732 17.5885 12.3174L17.9958 12.1231V12.3563H17.9795Z" fill="url(#paint10_radial_54_6924)"/>
<path d="M17.8165 12.4988C17.8165 12.9523 18.0283 13.3798 18.2075 13.7555C18.3542 14.0665 18.4845 14.3256 18.4845 14.5458C18.4845 15.077 17.9468 15.5175 17.2625 15.5175C16.5945 15.5175 16.0568 15.0899 16.0568 14.5458C16.0568 14.0405 16.8552 12.7968 17.6536 12.4211L17.8165 12.3434V12.4988Z" fill="url(#paint11_radial_54_6924)"/>
<path d="M18.1588 14.2996C18.1588 14.1183 18.0936 13.911 18.0121 13.6778C18.1588 13.9887 18.3054 14.2737 18.3054 14.494C18.3054 14.9863 17.8166 15.3749 17.1975 15.3749C17.1649 15.3749 17.1486 15.3749 17.116 15.3749C17.7026 15.3361 18.1588 14.8697 18.1588 14.2996Z" fill="#D1DCEE"/>
<path d="M17.0834 13.3021C17.0671 13.2891 17.0834 13.2373 17.0997 13.2114C17.1323 13.1725 17.1649 13.1596 17.1811 13.1855C17.1974 13.1984 17.1811 13.2502 17.1649 13.2762C17.1486 13.315 17.0997 13.328 17.0834 13.3021Z" fill="#F1E6DD"/>
<path d="M16.7249 13.7944C16.6924 13.7685 16.725 13.6907 16.7738 13.6389C16.8227 13.5871 16.8879 13.5612 16.9042 13.5871C16.9368 13.613 16.9205 13.6907 16.8553 13.7425C16.8227 13.8073 16.7575 13.8203 16.7249 13.7944Z" fill="#F1E6DD"/>
<path d="M17.0346 6.53927C17.0346 6.4745 17.0509 6.42268 17.0509 6.3579C17.0509 5.04939 15.6823 4 13.9878 4C12.6029 4 11.446 4.6996 11.055 5.6583C10.6151 5.39919 10.0448 5.24373 9.42566 5.24373C8.02444 5.24373 6.88391 6.04697 6.88391 7.03158C6.88391 7.12227 6.9002 7.2 6.9165 7.29069C5.23829 7.51094 4 8.23644 4 9.11742C4 10.1539 5.74338 10.996 7.91039 10.996C8.67617 10.996 9.37678 10.8923 9.97963 10.7109C10.6314 10.9441 11.4134 11.0866 12.277 11.0866C13.1079 11.0866 13.8574 10.9571 14.4929 10.7498C15.0631 10.996 15.7312 11.1385 16.4481 11.1385C18.4033 11.1385 20 10.102 20 8.8324C20 7.6664 18.7291 6.72065 17.0346 6.53927Z" fill="url(#paint12_radial_54_6924)"/>
<path d="M11.3156 5.82671L11.2179 6.05991L10.9735 5.9174C10.5824 5.6842 10.0774 5.55465 9.57227 5.55465C8.36656 5.55465 7.38897 6.24129 7.38897 7.07044C7.38897 7.13521 7.38897 7.21295 7.40526 7.29068L7.43785 7.4591L7.22603 7.48501C5.72705 7.67934 4.66799 8.31416 4.66799 9.02671C4.66799 9.90769 6.23214 10.6202 8.13846 10.6202C8.80648 10.6202 9.45821 10.5296 10.0122 10.3611L10.0937 10.3352L10.1751 10.3611C10.778 10.5814 11.4949 10.698 12.2607 10.698C12.9776 10.698 13.6782 10.5943 14.2647 10.387L14.3625 10.3482L14.4602 10.387C14.9816 10.6073 15.5845 10.7239 16.2036 10.7239C17.9307 10.7239 19.3482 9.82995 19.3482 8.71578C19.3482 7.73117 18.2566 6.90202 16.7413 6.73359L16.5458 6.70768L16.5621 6.3838C16.5458 5.29554 15.3401 4.3757 13.8737 4.3757C12.6843 4.3757 11.6578 4.95869 11.3156 5.82671Z" fill="url(#paint13_radial_54_6924)"/>
<path d="M18.9247 8.664C18.9247 7.87371 17.996 7.18707 16.7088 7.04456L16.0897 6.97978C16.0897 6.97978 16.1223 6.35792 16.1223 6.33201C16.1223 5.41217 15.1284 4.66075 13.9064 4.66075C13.271 4.66075 12.7007 4.85508 12.2934 5.19193C12.6355 5.02351 13.0592 4.91986 13.4991 4.91986C14.7374 4.93282 15.7312 5.68424 15.7312 6.60407C15.7312 6.62999 15.6987 7.25185 15.6987 7.25185L16.3178 7.31663C17.605 7.45914 18.5337 8.13282 18.5337 8.93606C18.5337 9.31177 18.3219 9.66157 17.9797 9.93363C18.55 9.6227 18.9247 9.16926 18.9247 8.664Z" fill="url(#paint14_radial_54_6924)"/>
<path d="M8.74139 8.93605C8.33406 8.96196 7.95931 9.23403 7.89414 9.55791L7.30758 12.8097C7.24241 13.1336 7.53569 13.3539 7.92673 13.315L9.18131 13.1854C9.58864 13.1466 9.76787 13.3409 9.57235 13.6259L7.53569 16.7353C7.34017 17.0203 7.40534 17.0591 7.66603 16.8L12.4074 12.2786C12.6681 12.0324 12.554 11.8381 12.1467 11.851L10.664 11.9158C10.2567 11.9288 10.0611 11.7085 10.2241 11.4105L11.3483 9.32471C11.5112 9.02674 11.3157 8.80649 10.9084 8.81945L8.74139 8.93605Z" fill="url(#paint15_radial_54_6924)"/>
<path d="M10.9247 9.11741L8.75772 9.23401C8.52961 9.24697 8.28522 9.41539 8.25263 9.59677L7.64978 12.8615C7.63348 12.9263 7.64978 12.9781 7.68236 13.0041C7.71495 13.03 7.78012 13.0429 7.86159 13.03L9.11617 12.9004C9.44204 12.8615 9.73532 12.9522 9.88196 13.1207C9.96342 13.2113 9.99601 13.315 9.99601 13.4186C9.99601 13.5352 9.96342 13.6518 9.88196 13.7684C9.88196 13.7684 9.47462 14.4033 9.09988 14.9733C10.4685 13.6648 11.9838 12.2397 12.0653 12.162C11.886 12.162 10.6803 12.2138 10.6803 12.2138C10.3545 12.2267 10.0775 12.136 9.91454 11.9547C9.83308 11.851 9.7842 11.7344 9.7842 11.6049C9.7842 11.5012 9.81678 11.3976 9.86566 11.2939L11.0062 9.2081C11.0225 9.16924 11.0388 9.14332 11.0388 9.13037C11.0225 9.11741 10.9899 9.11741 10.9247 9.11741Z" fill="url(#paint16_radial_54_6924)"/>
<path d="M12.4562 6.25426C12.4562 6.2154 12.4562 6.17653 12.4562 6.13767C12.4562 5.29556 11.5601 4.60892 10.4684 4.60892C9.5723 4.60892 8.82281 5.06236 8.56212 5.68422C8.26884 5.5158 7.91039 5.41216 7.50305 5.41216C6.59063 5.41216 5.85743 5.93038 5.85743 6.57815C5.85743 6.62997 5.85743 6.69475 5.87373 6.74657C4.79837 6.88908 4 7.36844 4 7.92552C4 8.59921 5.14053 9.14334 6.52546 9.14334C7.01426 9.14334 7.47047 9.07856 7.86151 8.96196C8.28513 9.11743 8.79022 9.20812 9.36049 9.20812C9.89817 9.20812 10.387 9.13038 10.7943 8.98787C11.1527 9.14334 11.5927 9.23403 12.0652 9.23403C13.336 9.23403 14.3625 8.56034 14.3625 7.74415C14.3788 6.99273 13.5479 6.37086 12.4562 6.25426Z" fill="url(#paint17_radial_54_6924)"/>
<path d="M8.74142 5.80081L8.67625 5.94332L8.51331 5.85263C8.25262 5.71012 7.92675 5.61943 7.60089 5.61943C6.81881 5.61943 6.18337 6.05992 6.18337 6.60405C6.18337 6.65587 6.18337 6.69474 6.19967 6.74656L6.21596 6.86316L6.06932 6.87612C5.09172 7.00567 4.40741 7.40729 4.40741 7.87369C4.40741 8.44373 5.41759 8.91013 6.65588 8.91013C7.0795 8.91013 7.50313 8.8583 7.87788 8.7417L7.92675 8.72875L7.97563 8.7417C8.36667 8.88421 8.83918 8.96195 9.32798 8.96195C9.80048 8.96195 10.2404 8.89717 10.6314 8.76762L10.6966 8.7417L10.7618 8.76762C11.1039 8.91013 11.495 8.98786 11.9023 8.98786C13.0266 8.98786 13.939 8.40486 13.939 7.69231C13.939 7.05749 13.2221 6.51336 12.2445 6.40972L12.1141 6.39676L12.1304 6.18948C12.1304 5.46397 11.3483 4.86802 10.4033 4.86802C9.63755 4.85506 8.96952 5.23077 8.74142 5.80081Z" fill="url(#paint18_radial_54_6924)"/>
<path d="M13.6781 7.64051C13.6781 7.12229 13.0753 6.6818 12.2443 6.59111L11.8533 6.55225C11.8533 6.55225 11.8696 6.15063 11.8696 6.13767C11.8696 5.54172 11.2178 5.04941 10.4358 5.04941C10.0284 5.04941 9.65369 5.17897 9.393 5.38625C9.62111 5.26965 9.8818 5.20488 10.1751 5.20488C10.9734 5.20488 11.6089 5.69718 11.6089 6.29314C11.6089 6.30609 11.5926 6.70771 11.5926 6.70771L11.9836 6.74658C12.8146 6.83727 13.4174 7.27775 13.4174 7.79597C13.4174 8.04213 13.2871 8.26237 13.059 8.44375C13.4337 8.26237 13.6781 7.97735 13.6781 7.64051Z" fill="url(#paint19_radial_54_6924)"/>
<defs>
<radialGradient id="paint0_radial_54_6924" cx="0" cy="0" r="1" gradientUnits="userSpaceOnUse" gradientTransform="translate(4.74612 8.80666) scale(25.9584 16.1891)">
<stop offset="0.005618" stop-color="#D3DFF2"/>
<stop offset="0.5393" stop-color="#1998D5"/>
<stop offset="1" stop-color="#0073BB"/>
</radialGradient>
<radialGradient id="paint1_radial_54_6924" cx="0" cy="0" r="1" gradientUnits="userSpaceOnUse" gradientTransform="translate(11.6029 12.3105) rotate(180) scale(10.8626 6.61482)">
<stop offset="0.005618" stop-color="#A9D1EF"/>
<stop offset="0.5393" stop-color="#1998D5"/>
<stop offset="1" stop-color="#0073BB"/>
</radialGradient>
<radialGradient id="paint2_radial_54_6924" cx="0" cy="0" r="1" gradientUnits="userSpaceOnUse" gradientTransform="translate(4.14234 8.43935) scale(25.8883 16.1802)">
<stop offset="0.005618" stop-color="#D3DFF2"/>
<stop offset="0.5393" stop-color="#1998D5"/>
<stop offset="1" stop-color="#0073BB"/>
</radialGradient>
<radialGradient id="paint3_radial_54_6924" cx="0" cy="0" r="1" gradientUnits="userSpaceOnUse" gradientTransform="translate(12.7348 11.4777) rotate(180) scale(10.9236 6.63024)">
<stop offset="0.005618" stop-color="#A9D1EF"/>
<stop offset="0.5393" stop-color="#1998D5"/>
<stop offset="1" stop-color="#0073BB"/>
</radialGradient>
<radialGradient id="paint4_radial_54_6924" cx="0" cy="0" r="1" gradientUnits="userSpaceOnUse" gradientTransform="translate(4.83091 8.73685) scale(26.0293 16.2099)">
<stop offset="0.005618" stop-color="#D3DFF2"/>
<stop offset="0.5393" stop-color="#1998D5"/>
<stop offset="1" stop-color="#0073BB"/>
</radialGradient>
<radialGradient id="paint5_radial_54_6924" cx="0" cy="0" r="1" gradientUnits="userSpaceOnUse" gradientTransform="translate(12.3651 11.8078) rotate(180) scale(10.8223 6.6377)">
<stop offset="0.005618" stop-color="#A9D1EF"/>
<stop offset="0.5393" stop-color="#1998D5"/>
<stop offset="1" stop-color="#0073BB"/>
</radialGradient>
<radialGradient id="paint6_radial_54_6924" cx="0" cy="0" r="1" gradientUnits="userSpaceOnUse" gradientTransform="translate(4.83084 8.82244) scale(26.0299 16.2103)">
<stop offset="0.005618" stop-color="#D3DFF2"/>
<stop offset="0.5393" stop-color="#1998D5"/>
<stop offset="1" stop-color="#0073BB"/>
</radialGradient>
<radialGradient id="paint7_radial_54_6924" cx="0" cy="0" r="1" gradientUnits="userSpaceOnUse" gradientTransform="translate(12.3637 11.7965) rotate(180) scale(10.8221 6.63756)">
<stop offset="0.005618" stop-color="#A9D1EF"/>
<stop offset="0.5393" stop-color="#1998D5"/>
<stop offset="1" stop-color="#0073BB"/>
</radialGradient>
<radialGradient id="paint8_radial_54_6924" cx="0" cy="0" r="1" gradientUnits="userSpaceOnUse" gradientTransform="translate(4.33108 8.67146) scale(26.0281 16.1126)">
<stop offset="0.005618" stop-color="#D3DFF2"/>
<stop offset="0.5393" stop-color="#1998D5"/>
<stop offset="1" stop-color="#0073BB"/>
</radialGradient>
<radialGradient id="paint9_radial_54_6924" cx="0" cy="0" r="1" gradientUnits="userSpaceOnUse" gradientTransform="translate(12.0768 11.9922) rotate(180) scale(10.8601 6.63118)">
<stop offset="0.005618" stop-color="#A9D1EF"/>
<stop offset="0.5393" stop-color="#1998D5"/>
<stop offset="1" stop-color="#0073BB"/>
</radialGradient>
<radialGradient id="paint10_radial_54_6924" cx="0" cy="0" r="1" gradientUnits="userSpaceOnUse" gradientTransform="translate(4.25076 8.62171) scale(26.1824 16.1715)">
<stop offset="0.005618" stop-color="#D3DFF2"/>
<stop offset="0.5393" stop-color="#1998D5"/>
<stop offset="1" stop-color="#0073BB"/>
</radialGradient>
<radialGradient id="paint11_radial_54_6924" cx="0" cy="0" r="1" gradientUnits="userSpaceOnUse" gradientTransform="translate(12.0887 11.951) rotate(180) scale(10.8597 6.60448)">
<stop offset="0.005618" stop-color="#A9D1EF"/>
<stop offset="0.5393" stop-color="#1998D5"/>
<stop offset="1" stop-color="#0073BB"/>
</radialGradient>
<radialGradient id="paint12_radial_54_6924" cx="0" cy="0" r="1" gradientUnits="userSpaceOnUse" gradientTransform="translate(15.0062 23.601) scale(12.5781 22.4168)">
<stop offset="0.005618" stop-color="#A9D1EF"/>
<stop offset="0.5393" stop-color="#1998D5"/>
<stop offset="1" stop-color="#0073BB"/>
</radialGradient>
<radialGradient id="paint13_radial_54_6924" cx="0" cy="0" r="1" gradientUnits="userSpaceOnUse" gradientTransform="translate(17.6861 9.35674) scale(8.68321 15.9665)">
<stop offset="0.005618" stop-color="#A9D1EF"/>
<stop offset="0.5393" stop-color="#1998D5"/>
<stop offset="1" stop-color="#0073BB"/>
</radialGradient>
<radialGradient id="paint14_radial_54_6924" cx="0" cy="0" r="1" gradientUnits="userSpaceOnUse" gradientTransform="translate(15.7894 10.8312) scale(23.0532 23.0486)">
<stop stop-color="#CBEBFB"/>
<stop offset="0.7767" stop-color="#BDCDDA"/>
<stop offset="1" stop-color="#B9C4D0"/>
</radialGradient>
<radialGradient id="paint15_radial_54_6924" cx="0" cy="0" r="1" gradientUnits="userSpaceOnUse" gradientTransform="translate(12.5414 12.1663) scale(20.5441 6.15843)">
<stop stop-color="#FBB01C"/>
<stop offset="0.7007" stop-color="#FBAE1C"/>
<stop offset="0.9529" stop-color="#F9A71A"/>
<stop offset="1" stop-color="#F9A51A"/>
</radialGradient>
<radialGradient id="paint16_radial_54_6924" cx="0" cy="0" r="1" gradientUnits="userSpaceOnUse" gradientTransform="translate(16.1932 17.0755) scale(31.9791 19.2011)">
<stop offset="0.19" stop-color="#FFF100"/>
<stop offset="0.5752" stop-color="#FAC217"/>
<stop offset="1" stop-color="#F58A33"/>
</radialGradient>
<radialGradient id="paint17_radial_54_6924" cx="0" cy="0" r="1" gradientUnits="userSpaceOnUse" gradientTransform="translate(14.8263 23.2927) scale(12.5836 22.4184)">
<stop offset="0.005618" stop-color="#A9D1EF"/>
<stop offset="0.5393" stop-color="#1998D5"/>
<stop offset="1" stop-color="#0073BB"/>
</radialGradient>
<radialGradient id="paint18_radial_54_6924" cx="0" cy="0" r="1" gradientUnits="userSpaceOnUse" gradientTransform="translate(17.5004 8.94197) scale(8.66554 15.9401)">
<stop offset="0.005618" stop-color="#A9D1EF"/>
<stop offset="0.5393" stop-color="#1998D5"/>
<stop offset="1" stop-color="#005588"/>
</radialGradient>
<radialGradient id="paint19_radial_54_6924" cx="0" cy="0" r="1" gradientUnits="userSpaceOnUse" gradientTransform="translate(12.4337 6.44444) scale(6.18946 4.9215)">
<stop stop-color="#CBEBFB"/>
<stop offset="0.7767" stop-color="#BDCDDA"/>
<stop offset="1" stop-color="#B9C4D0"/>
</radialGradient>
</defs>
</svg>
