<svg width="532" height="59" viewBox="0 0 532 59" fill="none" xmlns="http://www.w3.org/2000/svg">
<g style="mix-blend-mode:screen" opacity="0.3" clip-path="url(#clip0_12424_3098)">
<path d="M531.4 58.1C524.7 47.8 513.2 41 500 41C491 41 482.7 44.2 476.2 49.5C473.2 36.3 461.4 26.5 447.3 26.5C444.6 26.5 442.1 26.9 439.6 27.5C432.5 14.5 418.6 5.7 402.8 5.7C382.5 5.7 365.6 20.1 361.7 39.2C356.1 33.7 348.5 30.3 340 30.3C330.8 30.3 322.6 34.3 316.9 40.6C310.7 29.9 299.2 22.7 286 22.7C274.1 22.7 263.5 28.6 257.1 37.5C251.3 33 244.1 30.2 236.2 30.2C234.2 30.2 232.3 30.4 230.4 30.7C225.1 18.9 213.3 10.6 199.5 10.6C186 10.6 174.3 18.6 168.9 30.1C163.9 25.5 157.3 22.6 149.9 22.6C147.3 22.6 144.9 23 142.5 23.6C138 10 125.1 0 109.8 0C94.5 0 81.6 10 77.1 23.7C73.3 21.5 68.8 20.2 64 20.2C50.7 20.2 39.7 30.3 38.3 43.2C34.8 41.8 31 41 27.1 41C15.1 41 4.8 48 0 58.1H531.4Z" fill="white"/>
</g>
<defs>
<clipPath id="clip0_12424_3098">
<rect width="531.4" height="58.1" fill="white"/>
</clipPath>
</defs>
</svg>
