<svg width="39" height="39" viewBox="0 0 39 39" fill="none" xmlns="http://www.w3.org/2000/svg">
<path d="M31.3696 5.08698C27.1618 5.08698 23.7391 8.5105 23.7391 12.7174C23.7391 13.1854 24.1181 13.5652 24.587 13.5652C25.0558 13.5652 25.4348 13.1854 25.4348 12.7174C25.4348 9.4448 28.0978 6.78263 31.3696 6.78263C34.6413 6.78263 37.3043 9.4448 37.3043 12.7174C37.3043 15.99 34.6413 18.6522 31.3696 18.6522H0.847826C0.379826 18.6522 0 19.032 0 19.5C0 19.968 0.379826 20.3478 0.847826 20.3478H31.3696C35.5773 20.3478 39 16.9243 39 12.7174C39 8.5105 35.5773 5.08698 31.3696 5.08698Z" fill="black"/>
<path d="M15.2609 3.3913C11.9883 3.3913 9.32609 6.05347 9.32609 9.32608C9.32609 9.79408 9.70591 10.1739 10.1739 10.1739C10.6419 10.1739 11.0217 9.79408 11.0217 9.32608C11.0217 6.98862 12.9234 5.08695 15.2609 5.08695C17.5983 5.08695 19.5 6.98862 19.5 9.32608C19.5 11.6635 17.5983 13.5652 15.2609 13.5652H0.847826C0.379826 13.5652 0 13.945 0 14.413C0 14.881 0.379826 15.2609 0.847826 15.2609H15.2609C18.5335 15.2609 21.1957 12.5987 21.1957 9.32608C21.1957 6.05347 18.5335 3.3913 15.2609 3.3913Z" fill="black"/>
<path d="M29.6739 23.7391H0.847826C0.379826 23.7391 0 24.119 0 24.587C0 25.055 0.379826 25.4348 0.847826 25.4348H29.6739C32.0114 25.4348 33.913 27.3365 33.913 29.6739C33.913 32.0114 32.0114 33.913 29.6739 33.913C27.3365 33.913 25.4348 32.0114 25.4348 29.6739C25.4348 29.2059 25.0558 28.8261 24.587 28.8261C24.1181 28.8261 23.7391 29.2059 23.7391 29.6739C23.7391 32.9465 26.4022 35.6087 29.6739 35.6087C32.9457 35.6087 35.6087 32.9465 35.6087 29.6739C35.6087 26.4013 32.9457 23.7391 29.6739 23.7391Z" fill="black"/>
</svg>
